<?xml version="1.0" encoding="UTF-8"?>
<svg xmlns="http://www.w3.org/2000/svg" xmlns:xlink="http://www.w3.org/1999/xlink" viewBox="0 0 48 48" width="48px" height="48px">
<g id="surface51134037">
<path style=" stroke:none;fill-rule:nonzero;fill:rgb(19.607843%,19.607843%,19.607843%);fill-opacity:1;" d="M 42 37 C 42 39.761719 39.761719 42 37 42 L 11 42 C 8.238281 42 6 39.761719 6 37 L 6 11 C 6 8.238281 8.238281 6 11 6 L 37 6 C 39.761719 6 42 8.238281 42 11 Z M 42 37 "/>
<path style=" stroke:none;fill-rule:nonzero;fill:rgb(34.509805%,10.980392%,52.941179%);fill-opacity:1;" d="M 31 12 L 26 12 L 26 35.5 C 28.5 35.5 30.984375 36.011719 31 36 C 31.015625 35.988281 31 12 31 12 Z M 31 12 "/>
<path style=" stroke:none;fill-rule:nonzero;fill:rgb(34.509805%,10.980392%,52.941179%);fill-opacity:1;" d="M 17 12 L 22 12 L 22 35.5 C 19.5 35.5 17.015625 36.011719 17 36 C 16.984375 35.988281 17 12 17 12 Z M 17 12 "/>
<path style=" stroke:none;fill-rule:nonzero;fill:rgb(49.411765%,13.333334%,80.784315%);fill-opacity:1;" d="M 22 12 L 17 12 L 26 35.5 C 28.5 35.5 30.984375 36.011719 31 36 C 31.015625 35.988281 22 12 22 12 Z M 22 12 "/>
</g>
</svg>
