<?xml version="1.0" encoding="UTF-8"?>
<svg xmlns="http://www.w3.org/2000/svg" xmlns:xlink="http://www.w3.org/1999/xlink" viewBox="0 0 48 48" width="48px" height="48px">
<g id="surface51093952">
<path style=" stroke:none;fill-rule:nonzero;fill:rgb(27.450982%,27.450982%,27.450982%);fill-opacity:1;" d="M 42.910156 24.539062 L 27.230469 18.324219 C 26.828125 18.167969 26.417969 18.046875 26 17.949219 L 26 26 C 26 27.105469 25.105469 28 24 28 C 22.894531 28 22 27.105469 22 26 L 22 17.949219 C 21.582031 18.050781 21.171875 18.167969 20.769531 18.328125 L 5.089844 24.539062 C 3.6875 25.09375 3.621094 27.027344 4.980469 27.675781 L 18.347656 34.039062 C 21.917969 35.742188 26.082031 35.742188 29.652344 34.039062 L 43.019531 27.675781 C 44.378906 27.027344 44.3125 25.09375 42.910156 24.539062 Z M 42.910156 24.539062 "/>
<path style=" stroke:none;fill-rule:nonzero;fill:rgb(86.274511%,14.901961%,14.901961%);fill-opacity:1;" d="M 15 26.5 C 15 27.328125 13.65625 28 12 28 C 10.34375 28 9 27.328125 9 26.5 C 9 25.671875 10.34375 25 12 25 C 13.65625 25 15 25.671875 15 26.5 Z M 15 26.5 "/>
<path style=" stroke:none;fill-rule:nonzero;fill:rgb(34.509805%,10.980392%,52.941179%);fill-opacity:1;" d="M 30.421875 36.441406 C 28.429688 37.386719 26.210938 37.886719 24 37.886719 C 21.789062 37.886719 19.570312 37.386719 17.578125 36.441406 C 17.578125 36.441406 8.582031 32.15625 5.234375 30.5625 C 4.660156 30.285156 4 30.699219 4 31.328125 L 4 33.648438 C 4 33.976562 4.191406 34.277344 4.492188 34.421875 L 17.476562 40.539062 C 21.601562 42.484375 26.398438 42.484375 30.523438 40.539062 L 43.503906 34.421875 C 43.808594 34.277344 44 33.976562 44 33.648438 L 44 31.332031 C 44 30.703125 43.335938 30.289062 42.761719 30.5625 C 39.410156 32.160156 30.421875 36.441406 30.421875 36.441406 Z M 30.421875 36.441406 "/>
<path style=" stroke:none;fill-rule:nonzero;fill:rgb(49.411765%,13.333334%,80.784315%);fill-opacity:1;" d="M 29 11 C 29 13.761719 26.761719 16 24 16 C 21.238281 16 19 13.761719 19 11 C 19 8.238281 21.238281 6 24 6 C 26.761719 6 29 8.238281 29 11 Z M 29 11 "/>
</g>
</svg>
