<?xml version="1.0" encoding="UTF-8"?>
<svg xmlns="http://www.w3.org/2000/svg" xmlns:xlink="http://www.w3.org/1999/xlink" viewBox="0 0 30 30" width="30px" height="30px">
<g id="surface142885217">
<path style=" stroke:none;fill-rule:nonzero;fill:rgb(49.411765%,13.333334%,80.784315%);fill-opacity:1;" d="M 24 4 L 6 4 C 4.894531 4 4 4.894531 4 6 L 4 24 C 4 25.105469 4.894531 26 6 26 L 24 26 C 25.105469 26 26 25.105469 26 24 L 26 6 C 26 4.894531 25.105469 4 24 4 Z M 15 20.378906 C 15 22.15625 13.910156 23.152344 12.101562 23.152344 C 10.3125 23.152344 9.171875 22.109375 9.171875 20.417969 L 11.109375 20.417969 C 11.113281 21.046875 11.488281 21.441406 12.066406 21.441406 C 12.660156 21.441406 12.980469 21.066406 12.980469 20.363281 L 12.980469 14.996094 L 15 14.996094 Z M 20.480469 23.152344 C 18.472656 23.152344 17.207031 22.207031 17.175781 20.675781 L 19.101562 20.675781 C 19.148438 21.253906 19.726562 21.621094 20.5625 21.621094 C 21.316406 21.621094 21.835938 21.261719 21.835938 20.738281 C 21.835938 20.296875 21.488281 20.058594 20.578125 19.878906 L 19.535156 19.671875 C 18.082031 19.394531 17.335938 18.601562 17.335938 17.355469 C 17.335938 15.800781 18.578125 14.785156 20.492188 14.785156 C 22.351562 14.785156 23.640625 15.789062 23.671875 17.261719 L 21.808594 17.261719 C 21.761719 16.699219 21.230469 16.308594 20.519531 16.308594 C 19.808594 16.308594 19.34375 16.644531 19.34375 17.171875 C 19.34375 17.605469 19.695312 17.859375 20.53125 18.023438 L 21.550781 18.222656 C 23.121094 18.527344 23.824219 19.234375 23.824219 20.496094 C 23.824219 22.152344 22.5625 23.152344 20.480469 23.152344 Z M 20.480469 23.152344 "/>
</g>
</svg>
