<?xml version="1.0" encoding="UTF-8"?>
<svg xmlns="http://www.w3.org/2000/svg" xmlns:xlink="http://www.w3.org/1999/xlink" viewBox="0 0 48 48" width="48px" height="48px">
<g id="surface50699029">
<path style=" stroke:none;fill-rule:nonzero;fill:rgb(49.411765%,13.333334%,80.784315%);fill-opacity:1;" d="M 39.867188 25.957031 C 38.328125 25.964844 36.996094 26.332031 35.882812 26.882812 C 35.472656 26.070312 35.058594 25.351562 34.988281 24.820312 C 34.910156 24.195312 34.816406 23.824219 34.914062 23.085938 C 35.011719 22.34375 35.441406 21.292969 35.433594 21.214844 C 35.429688 21.136719 35.339844 20.757812 34.449219 20.75 C 33.5625 20.746094 32.804688 20.921875 32.714844 21.15625 C 32.628906 21.390625 32.457031 21.917969 32.351562 22.46875 C 32.195312 23.269531 30.578125 26.140625 29.660156 27.640625 C 29.363281 27.054688 29.105469 26.539062 29.054688 26.128906 C 28.972656 25.507812 28.878906 25.136719 28.976562 24.394531 C 29.074219 23.652344 29.503906 22.605469 29.496094 22.523438 C 29.492188 22.445312 29.402344 22.070312 28.515625 22.0625 C 27.628906 22.054688 26.867188 22.234375 26.78125 22.46875 C 26.691406 22.699219 26.59375 23.246094 26.414062 23.777344 C 26.230469 24.308594 24.085938 29.09375 23.523438 30.332031 C 23.234375 30.964844 22.984375 31.472656 22.808594 31.820312 C 22.808594 31.816406 22.808594 31.816406 22.808594 31.816406 C 22.808594 31.816406 22.796875 31.839844 22.78125 31.878906 C 22.628906 32.175781 22.539062 32.335938 22.539062 32.335938 C 22.539062 32.335938 22.539062 32.339844 22.542969 32.34375 C 22.421875 32.558594 22.296875 32.761719 22.230469 32.761719 C 22.1875 32.761719 22.097656 32.183594 22.25 31.390625 C 22.570312 29.730469 23.339844 27.144531 23.332031 27.054688 C 23.328125 27.007812 23.472656 26.558594 22.828125 26.320312 C 22.203125 26.09375 21.980469 26.472656 21.925781 26.476562 C 21.867188 26.476562 21.828125 26.609375 21.828125 26.609375 C 21.828125 26.609375 22.523438 23.699219 20.496094 23.699219 C 19.230469 23.699219 17.472656 25.085938 16.609375 26.34375 C 16.0625 26.640625 14.894531 27.277344 13.65625 27.960938 C 13.179688 28.222656 12.691406 28.488281 12.230469 28.742188 C 12.199219 28.707031 12.167969 28.675781 12.136719 28.640625 C 9.679688 26.015625 5.132812 24.160156 5.324219 20.632812 C 5.394531 19.351562 5.84375 15.976562 14.058594 11.882812 C 20.789062 8.527344 26.179688 9.449219 27.109375 11.496094 C 28.441406 14.417969 24.230469 19.851562 17.238281 20.632812 C 14.578125 20.933594 13.175781 19.898438 12.824219 19.515625 C 12.457031 19.109375 12.402344 19.09375 12.265625 19.167969 C 12.042969 19.292969 12.183594 19.648438 12.265625 19.863281 C 12.476562 20.40625 13.332031 21.367188 14.789062 21.847656 C 16.074219 22.269531 19.203125 22.503906 22.984375 21.039062 C 27.21875 19.402344 30.527344 14.84375 29.554688 11.035156 C 28.566406 7.160156 22.144531 5.886719 16.0625 8.046875 C 12.441406 9.332031 8.523438 11.351562 5.707031 13.984375 C 2.355469 17.117188 1.824219 19.84375 2.042969 20.980469 C 2.824219 25.03125 8.402344 27.664062 10.636719 29.617188 C 10.527344 29.679688 10.425781 29.738281 10.328125 29.789062 C 9.210938 30.34375 4.957031 32.570312 3.894531 34.921875 C 2.6875 37.585938 4.085938 39.5 5.011719 39.757812 C 7.878906 40.558594 10.824219 39.121094 12.40625 36.761719 C 13.988281 34.402344 13.796875 31.328125 13.070312 29.925781 C 13.0625 29.910156 13.050781 29.894531 13.042969 29.875 C 13.332031 29.703125 13.625 29.53125 13.917969 29.359375 C 14.488281 29.023438 15.046875 28.710938 15.53125 28.445312 C 15.261719 29.191406 15.0625 30.082031 14.960938 31.371094 C 14.835938 32.886719 15.457031 34.84375 16.269531 35.613281 C 16.628906 35.953125 17.058594 35.960938 17.328125 35.960938 C 18.273438 35.960938 18.707031 35.175781 19.179688 34.246094 C 19.761719 33.105469 20.28125 31.777344 20.28125 31.777344 C 20.28125 31.777344 19.632812 35.363281 21.398438 35.363281 C 22.042969 35.363281 22.6875 34.527344 22.976562 34.101562 C 22.980469 34.109375 22.980469 34.109375 22.980469 34.109375 C 22.980469 34.109375 22.996094 34.082031 23.027344 34.027344 C 23.097656 33.925781 23.132812 33.859375 23.132812 33.859375 C 23.132812 33.859375 23.136719 33.851562 23.136719 33.839844 C 23.394531 33.390625 23.96875 32.367188 24.828125 30.679688 C 25.941406 28.496094 27.007812 25.761719 27.007812 25.761719 C 27.007812 25.761719 27.105469 26.429688 27.433594 27.535156 C 27.621094 28.1875 28.027344 28.90625 28.351562 29.597656 C 28.09375 29.953125 27.933594 30.160156 27.933594 30.160156 C 27.933594 30.160156 27.933594 30.164062 27.9375 30.171875 C 27.730469 30.445312 27.5 30.738281 27.257812 31.027344 C 26.382812 32.070312 25.335938 33.265625 25.195312 33.609375 C 25.03125 34.015625 25.070312 34.3125 25.390625 34.554688 C 25.621094 34.730469 26.035156 34.757812 26.46875 34.730469 C 27.257812 34.675781 27.8125 34.480469 28.085938 34.359375 C 28.511719 34.210938 29.011719 33.972656 29.476562 33.628906 C 30.335938 32.996094 30.855469 32.09375 30.804688 30.890625 C 30.777344 30.230469 30.566406 29.574219 30.300781 28.957031 C 30.378906 28.847656 30.457031 28.730469 30.535156 28.617188 C 31.894531 26.632812 32.945312 24.453125 32.945312 24.453125 C 32.945312 24.453125 33.046875 25.121094 33.371094 26.226562 C 33.535156 26.785156 33.859375 27.398438 34.152344 27.996094 C 32.875 29.03125 32.082031 30.238281 31.808594 31.027344 C 31.300781 32.488281 31.699219 33.152344 32.445312 33.304688 C 32.78125 33.371094 33.261719 33.214844 33.621094 33.0625 C 34.066406 32.914062 34.605469 32.667969 35.105469 32.300781 C 35.96875 31.667969 36.796875 30.78125 36.746094 29.582031 C 36.722656 29.035156 36.574219 28.492188 36.371094 27.972656 C 37.453125 27.523438 38.855469 27.273438 40.640625 27.480469 C 44.464844 27.929688 45.214844 30.316406 45.074219 31.316406 C 44.929688 32.316406 44.128906 32.867188 43.859375 33.03125 C 43.589844 33.199219 43.507812 33.257812 43.53125 33.378906 C 43.5625 33.558594 43.6875 33.554688 43.914062 33.515625 C 44.230469 33.460938 45.925781 32.699219 45.996094 30.855469 C 46.089844 28.507812 43.84375 25.933594 39.867188 25.957031 Z M 10.371094 35.898438 C 9.101562 37.28125 7.332031 37.804688 6.570312 37.363281 C 5.753906 36.890625 6.078125 34.855469 7.632812 33.386719 C 8.578125 32.492188 9.804688 31.667969 10.617188 31.160156 C 10.800781 31.050781 11.070312 30.886719 11.402344 30.6875 C 11.457031 30.65625 11.488281 30.640625 11.488281 30.640625 C 11.550781 30.601562 11.617188 30.5625 11.683594 30.519531 C 12.25 32.609375 11.699219 34.449219 10.371094 35.898438 Z M 19.605469 29.621094 C 19.164062 30.699219 18.238281 33.453125 17.675781 33.304688 C 17.195312 33.179688 16.898438 31.085938 17.582031 29.023438 C 17.921875 27.988281 18.65625 26.75 19.085938 26.269531 C 19.777344 25.492188 20.539062 25.242188 20.722656 25.554688 C 20.960938 25.953125 19.882812 28.949219 19.605469 29.621094 Z M 27.234375 33.261719 C 27.046875 33.359375 26.875 33.421875 26.796875 33.375 C 26.738281 33.339844 26.871094 33.210938 26.871094 33.210938 C 26.871094 33.210938 27.828125 32.183594 28.203125 31.71875 C 28.421875 31.445312 28.675781 31.121094 28.949219 30.761719 C 28.953125 30.796875 28.953125 30.832031 28.953125 30.867188 C 28.953125 32.097656 27.765625 32.929688 27.234375 33.261719 Z M 33.109375 31.921875 C 32.972656 31.824219 32.996094 31.503906 33.453125 30.503906 C 33.632812 30.109375 34.046875 29.449219 34.761719 28.816406 C 34.84375 29.074219 34.894531 29.324219 34.890625 29.558594 C 34.882812 31.105469 33.777344 31.683594 33.109375 31.921875 Z M 33.109375 31.921875 "/>
</g>
</svg>
