<svg xmlns="http://www.w3.org/2000/svg" xmlns:xlink="http://www.w3.org/1999/xlink" viewBox="0,0,256,256" width="48px" height="48px" fill-rule="nonzero"><defs><linearGradient x1="19.369" y1="6.256" x2="32.915" y2="43.472" gradientUnits="userSpaceOnUse" id="color-1"><stop offset="0" stop-color="#dfe9f2"></stop><stop offset="0.391" stop-color="#d6e0e9"></stop><stop offset="1" stop-color="#bfc8d1"></stop></linearGradient><linearGradient x1="24" y1="2.152" x2="24" y2="39.957" gradientUnits="userSpaceOnUse" id="color-2"><stop offset="0" stop-color="#7e22ce"></stop><stop offset="0.443" stop-color="#7e22ce"></stop><stop offset="1" stop-color="#7e22ce"></stop></linearGradient></defs><g fill="none" fill-rule="nonzero" stroke="none" stroke-width="1" stroke-linecap="butt" stroke-linejoin="miter" stroke-miterlimit="10" stroke-dasharray="" stroke-dashoffset="0" font-family="none" font-weight="none" font-size="none" text-anchor="none" style="mix-blend-mode: normal"><g transform="scale(5.33333,5.33333)"><path d="M22.959,2.339l-17.674,6.151c-1.333,0.464 -2.163,1.795 -1.992,3.197l2.828,23.187c0.117,0.963 0.693,1.809 1.545,2.273l14.85,8.072c0.897,0.487 1.98,0.485 2.875,-0.005l14.952,-8.195c0.847,-0.464 1.419,-1.309 1.536,-2.268l2.826,-23.174c0.172,-1.41 -0.668,-2.747 -2.013,-3.204l-17.782,-6.041c-0.633,-0.215 -1.32,-0.213 -1.951,0.007z" fill="url(#color-1)"></path><path d="M42.62,12.14l-2.66,21.86c-0.08,0.64 -0.46,1.2 -1.03,1.51l-13.99,7.49c-0.3,0.16 -0.62,0.23 -0.94,0.23c-0.05,0 -0.09,-0.01 -0.14,-0.01c-0.27,-0.01 -0.54,-0.08 -0.8,-0.22l-13.99,-7.36c-0.56,-0.31 -0.95,-0.88 -1.03,-1.52l-2.66,-21.88c-0.12,-0.93 0.44,-1.82 1.32,-2.13l16.62,-5.87c0.18,-0.06 0.36,-0.1 0.54,-0.1c0.05,-0.01 0.09,-0.01 0.14,-0.01c0.22,0 0.44,0.04 0.66,0.11c1.58,0.57 6.2,2.23 16.62,5.76c0.89,0.31 1.46,1.2 1.34,2.14z" fill="url(#color-2)"></path><path d="M11.013,34h4.409l8.578,-18.496v-9.508z" fill="#ffffff"></path><path d="M18,24h6v4h-6z" fill="#ffffff"></path><path d="M42.62,12.14l-2.66,21.86c-0.08,0.64 -0.46,1.2 -1.03,1.51l-13.99,7.49c-0.3,0.16 -0.62,0.23 -0.94,0.23v-39.1c0.22,0 0.44,0.04 0.66,0.11c1.58,0.57 6.2,2.23 16.62,5.76c0.89,0.31 1.46,1.2 1.34,2.14z" fill="#6c1eaf"></path><path d="M24,6v9.508l8.578,18.496h4.409z" fill="#bfc8d1"></path><path d="M24,24.004h6v4h-6z" fill="#bfc8d1"></path><path d="M24,5.996v0.004l12.987,28.004h-4.409l-2.783,-6h-5.795v-0.004h-5.795l-2.783,6h-4.409l12.987,-28.004M20.06,24h3.94v0.004h3.94l-3.94,-8.496v-0.004l-3.94,8.496M25,1.467l-1.907,4.108l-12.987,28.004l-0.659,1.421h1.566h4.409h0.639l0.269,-0.579l2.513,-5.421h4.157l1,0.004h5.157l2.514,5.421l0.269,0.579h0.639h4.409h1.566l-0.659,-1.421l-12.895,-27.804v-4.312zM21.626,23l2.373,-5.117l2.375,5.121h-1.374l-1,-0.004h-2.374z" fill="#000000" opacity="0.05"></path><path d="M24,5.996v0.004l12.987,28.004h-4.409l-2.783,-6h-5.795v-0.004h-5.795l-2.783,6h-4.409l12.987,-28.004M20.06,24h3.94v0.004h3.94l-3.94,-8.496v-0.004l-3.94,8.496M24.5,3.733l-0.954,2.052l-12.987,28.005l-0.329,0.71h0.783h4.409h0.319l0.134,-0.29l2.648,-5.71h4.977l0.5,0.004h5.476l2.648,5.71l0.134,0.29h0.319h4.409h0.783l-0.329,-0.71l-12.94,-27.904v-2.157zM20.843,23.5l3.156,-6.806l3.158,6.81h-2.657l-0.5,-0.004h-3.157z" fill="#000000" opacity="0.07"></path></g></g></svg>